<svg xmlns="http://www.w3.org/2000/svg" viewBox="0 0 25.696 10.583" height="39.999" width="97.119"  fill="#ff0" xmlns:v="https://vecta.io/nano"><path d="M0 7.937V.243L.995.02v7.916zm2.593 0q-.328 0-.55-.222-.222-.233-.222-.55V3.418q0-.317.222-.54.222-.233.55-.233h1.44q.318 0 .54.233.222.222.222.54v3.746q0 .317-.222.55-.222.222-.54.222zm.603-.995h.222q.16 0 .275-.106.116-.116.116-.275V4.02q0-.16-.116-.265-.116-.116-.275-.116h-.222q-.16 0-.275.116-.106.106-.106.265v2.54q0 .16.106.275.116.106.275.106zm3.122.995q-.328 0-.55-.222-.222-.222-.222-.55V3.418q0-.328.222-.55.222-.222.55-.222h1.217V.233L8.53 0v7.937zm.603-.995h.614V3.64H6.92q-.148 0-.265.106-.116.106-.116.275v2.54q0 .148.116.265.116.116.265.116zm3.017 3.64q-.307 0-.54-.222-.233-.222-.233-.55V8.657l.995.233v.317q0 .148.116.265.116.116.265.116h.233q.17 0 .275-.116.106-.116.106-.265v-1.27H9.938q-.307 0-.54-.222-.233-.222-.233-.55V3.418q0-.328.233-.55.233-.222.54-.222h2.212V9.8q0 .328-.222.55-.222.222-.55.222zm.603-3.64h.233q.17 0 .275-.116.106-.116.106-.265V3.64h-.614q-.148 0-.265.106-.116.106-.116.275v2.54q0 .148.116.265.116.116.265.116zm3.016.994q-.318 0-.55-.222-.222-.233-.222-.55V3.408q0-.317.222-.54.233-.222.55-.222h1.44q.328 0 .55.222.222.222.222.54v1.6q0 .317-.222.55-.222.222-.55.222H13.78v.773q0 .16.106.275.116.106.286.106h1.376l.222.995zm.222-3.143h.614q.16 0 .265-.106.116-.116.116-.275V4.02q0-.16-.116-.265-.106-.116-.265-.116h-.222q-.17 0-.286.116-.106.106-.106.265zm3.83 3.143q-.317 0-.54-.222-.222-.222-.222-.54V5.8l.984.222v.56q0 .148.106.265.116.106.275.106H19.4q.16 0 .265-.106.116-.116.116-.275v-1.45H17.6q-.317 0-.54-.222-.222-.222-.222-.54V1.3q0-.318.222-.54.222-.222.54-.222h2.402q.317 0 .54.222.222.222.222.54v5.884q0 .317-.222.54-.222.222-.54.222zm.603-3.8H19.4q.16 0 .265-.106.116-.116.116-.275V1.894q0-.16-.116-.265-.106-.116-.265-.116h-1.196q-.16 0-.275.116-.106.106-.106.265v1.863q0 .16.106.275.116.106.275.106zm3.557 3.8v-.984l2.942-4.508v-.56q0-.16-.116-.265-.106-.116-.254-.116h-1.207q-.16 0-.275.116-.106.106-.106.265v.783l-.984-.222V1.28q0-.307.222-.53.222-.222.54-.222h2.413q.307 0 .53.222.222.222.222.53v1.386l-2.72 4.286h2.72v.984z"/></svg>
